<?xml version="1.0" encoding="utf-8"?>
<!-- Generator: Adobe Illustrator 24.0.0, SVG Export Plug-In . SVG Version: 6.00 Build 0)  -->
<svg version="1.1" id="Calque_1" xmlns="http://www.w3.org/2000/svg" xmlns:xlink="http://www.w3.org/1999/xlink" x="0px" y="0px"
	 viewBox="0 0 1920 1080" style="enable-background:new 0 0 1920 1080;" xml:space="preserve">
<style type="text/css">
	.st0{fill:#3D434B;}
	.st1{fill:none;stroke:#FD413C;stroke-width:2;stroke-miterlimit:10;}
	.st2{fill:#272B2F;stroke:#FD413C;stroke-width:2;stroke-miterlimit:10;}
</style>
<rect class="st0" width="1920" height="1080"/>
<line class="st1" x1="847" y1="695" x2="948" y2="291"/>
<line class="st1" x1="374" y1="381" x2="374" y2="336"/>
<line class="st1" x1="1142" y1="695" x2="948" y2="291"/>
<line class="st1" x1="714" y1="180" x2="664" y2="180"/>
<line class="st1" x1="374" y1="696" x2="374" y2="602"/>
<line class="st1" x1="1436" y1="695" x2="948" y2="291"/>
<line class="st1" x1="1731" y1="695" x2="948" y2="291"/>
<circle class="st2" cx="374" cy="602" r="20"/>
<circle class="st2" cx="374" cy="381" r="20"/>
<circle class="st2" cx="714" cy="180" r="20"/>
<circle class="st2" cx="374" cy="695" r="20"/>
<image style="overflow:visible;" width="1536" height="722" xlink:href="E720E9B.jpg"  transform="matrix(0.3045 0 0 0.3045 140.2881 70.0755)">
</image>
<rect x="138" y="380" class="st2" width="472" height="222"/>
<rect x="138" y="695" class="st2" width="472" height="222"/>
<circle class="st2" cx="951" cy="291" r="20"/>
<circle class="st2" cx="847" cy="695" r="20"/>
<circle class="st2" cx="1142" cy="695" r="20"/>
<circle class="st2" cx="1436" cy="695" r="20"/>
<circle class="st2" cx="1731" cy="695" r="20"/>
<rect x="715" y="69" class="st2" width="472" height="222"/>
<rect x="715" y="695" class="st2" width="263.6" height="162"/>
<rect x="1010.4" y="695" class="st2" width="263.6" height="162"/>
<rect x="1304" y="695" class="st2" width="263.6" height="162"/>
<rect x="1599.4" y="695" class="st2" width="263.6" height="162"/>
</svg>
